<?xml version="1.0" encoding="UTF-8"?>
<svg xmlns="http://www.w3.org/2000/svg" width="1440" height="1680" viewBox="0 0 1440 1680"
     role="img" aria-labelledby="title description">
  <title id="title">左手 29 键 Plum Twist 与 Joy-Con 焊接接线图</title>
  <desc id="description">RP2040-Zero 单手 5 行 6 列 ROW2COL 矩阵，最后一行缺最右键；Plum Twist 板载二极管阴极朝列；Joy-Con X、Y 与按压接线。</desc>
  <style>
    text { font-family: Inter, "SF Pro Text", "PingFang SC", "Microsoft YaHei", sans-serif; fill: #e9eef7; }
    .bg { fill: #151922; }
    .panel { fill: #202735; stroke: #536075; stroke-width: 2; }
    .title { font-size: 32px; font-weight: 800; }
    .subtitle { fill: #b9c5d6; font-size: 15px; }
    .section { font-size: 22px; font-weight: 800; }
    .key rect { fill: #29394a; stroke: #77b9dc; stroke-width: 2; }
    .key-label { font-size: 18px; font-weight: 800; text-anchor: middle; }
    .key-meta { fill: #bcd8e8; font-size: 13px; font-weight: 700; text-anchor: middle; }
    .key-pin { fill: #ffd47b; font-size: 11px; font-weight: 650; text-anchor: middle; }
    .warning-box { fill: #3a3022; stroke: #f0b65a; stroke-width: 2; }
    .warning { fill: #ffd47b; font-size: 15px; font-weight: 700; }
    .note { fill: #c4cfdd; font-size: 14px; }
    .pcb rect:first-child { fill: #34303e; stroke: #ad8fc7; stroke-width: 2; }
    .row-pad { fill: #69bde8; stroke: #d8f2ff; stroke-width: 1.5; }
    .col-pad { fill: #e7b555; stroke: #fff0bd; stroke-width: 1.5; }
    .pad-letter { fill: #151922; font-size: 11px; font-weight: 900; text-anchor: middle; }
    .switch { fill: #505a6a; stroke: #dfe7ef; stroke-width: 1.5; }
    .internal { stroke: #dfe7ef; stroke-width: 3; }
    .band { fill: #11151b; }
    .pcb-index { fill: #b7c1cf; font-size: 9px; text-anchor: middle; }
    .row-wire { fill: none; stroke: #69bde8; stroke-width: 7; stroke-linecap: round; }
    .col-wire { fill: none; stroke: #e7b555; stroke-width: 6; stroke-linecap: round; }
    .row-label { fill: #9bdcff; font-size: 13px; font-weight: 800; text-anchor: end; }
    .col-label { fill: #ffd47b; font-size: 13px; font-weight: 800; text-anchor: middle; }
    .col-pin-label { fill: #e6c984; font-size: 11px; font-weight: 700; text-anchor: middle; }
    .controller { fill: #252d3b; stroke: #7a879b; stroke-width: 2; }
    .controller-title { font-size: 19px; font-weight: 800; text-anchor: middle; }
    .pin { font-size: 13px; font-weight: 700; }
    .joy { fill: #34302e; stroke: #dc7e39; stroke-width: 3; }
    .joy-stick { fill: #4b4642; stroke: #f1c25f; stroke-width: 3; }
    .wire-vcc { stroke: #ef5350; }
    .wire-gnd { stroke: #aeb6c2; }
    .wire-x { stroke: #9dbb4b; }
    .wire-y { stroke: #55a6ad; }
    .wire-sw { stroke: #c185d8; }
    .joy-wire { fill: none; stroke-width: 5; stroke-linecap: round; }
    .flow { stroke: #e7edf5; stroke-width: 3; fill: none; marker-end: url(#arrow); }
    .diode { fill: #d99749; stroke: #ffd18b; stroke-width: 2; }
    .diode-band { fill: #11151b; }
    .flow-label { font-size: 14px; font-weight: 800; text-anchor: middle; }
  </style>
  <defs>
    <marker id="arrow" markerWidth="9" markerHeight="9" refX="7" refY="3" orient="auto">
      <path d="M0,0 L0,6 L8,3 z" fill="#e7edf5"/>
    </marker>
  </defs>

  <rect class="bg" width="1440" height="1680"/>
  <rect class="panel" x="24" y="20" width="1392" height="1640" rx="24"/>
  <text class="title" x="58" y="62">左手 29 键 + Joy-Con · Plum Twist 焊接接线图</text>
  <text class="subtitle" x="58" y="88">单手 RP2040-Zero · 5×6 矩阵（R4C5 不安装）· 从热插拔座/焊盘侧观察 · RGB 焊盘留空</text>

  <text class="section" x="58" y="128">第一层键位与 GPIO</text>
  <g class="key">
    <rect x="70" y="148" width="132" height="84" rx="12"/>
    <text class="key-label" x="136" y="176">=</text>
    <text class="key-meta" x="136" y="199">R0C0</text>
    <text class="key-pin" x="136" y="218">GP14 / GP2</text>
  </g>
  <g class="key">
    <rect x="216" y="148" width="132" height="84" rx="12"/>
    <text class="key-label" x="282" y="176">1</text>
    <text class="key-meta" x="282" y="199">R0C1</text>
    <text class="key-pin" x="282" y="218">GP14 / GP3</text>
  </g>
  <g class="key">
    <rect x="362" y="148" width="132" height="84" rx="12"/>
    <text class="key-label" x="428" y="176">2</text>
    <text class="key-meta" x="428" y="199">R0C2</text>
    <text class="key-pin" x="428" y="218">GP14 / GP4</text>
  </g>
  <g class="key">
    <rect x="508" y="148" width="132" height="84" rx="12"/>
    <text class="key-label" x="574" y="176">3</text>
    <text class="key-meta" x="574" y="199">R0C3</text>
    <text class="key-pin" x="574" y="218">GP14 / GP5</text>
  </g>
  <g class="key">
    <rect x="654" y="148" width="132" height="84" rx="12"/>
    <text class="key-label" x="720" y="176">4</text>
    <text class="key-meta" x="720" y="199">R0C4</text>
    <text class="key-pin" x="720" y="218">GP14 / GP6</text>
  </g>
  <g class="key">
    <rect x="800" y="148" width="132" height="84" rx="12"/>
    <text class="key-label" x="866" y="176">5</text>
    <text class="key-meta" x="866" y="199">R0C5</text>
    <text class="key-pin" x="866" y="218">GP14 / GP7</text>
  </g>
  <g class="key">
    <rect x="70" y="246" width="132" height="84" rx="12"/>
    <text class="key-label" x="136" y="274">Tab</text>
    <text class="key-meta" x="136" y="297">R1C0</text>
    <text class="key-pin" x="136" y="316">GP15 / GP2</text>
  </g>
  <g class="key">
    <rect x="216" y="246" width="132" height="84" rx="12"/>
    <text class="key-label" x="282" y="274">Q</text>
    <text class="key-meta" x="282" y="297">R1C1</text>
    <text class="key-pin" x="282" y="316">GP15 / GP3</text>
  </g>
  <g class="key">
    <rect x="362" y="246" width="132" height="84" rx="12"/>
    <text class="key-label" x="428" y="274">W</text>
    <text class="key-meta" x="428" y="297">R1C2</text>
    <text class="key-pin" x="428" y="316">GP15 / GP4</text>
  </g>
  <g class="key">
    <rect x="508" y="246" width="132" height="84" rx="12"/>
    <text class="key-label" x="574" y="274">E</text>
    <text class="key-meta" x="574" y="297">R1C3</text>
    <text class="key-pin" x="574" y="316">GP15 / GP5</text>
  </g>
  <g class="key">
    <rect x="654" y="246" width="132" height="84" rx="12"/>
    <text class="key-label" x="720" y="274">R</text>
    <text class="key-meta" x="720" y="297">R1C4</text>
    <text class="key-pin" x="720" y="316">GP15 / GP6</text>
  </g>
  <g class="key">
    <rect x="800" y="246" width="132" height="84" rx="12"/>
    <text class="key-label" x="866" y="274">T</text>
    <text class="key-meta" x="866" y="297">R1C5</text>
    <text class="key-pin" x="866" y="316">GP15 / GP7</text>
  </g>
  <g class="key">
    <rect x="70" y="344" width="132" height="84" rx="12"/>
    <text class="key-label" x="136" y="372">Esc</text>
    <text class="key-meta" x="136" y="395">R2C0</text>
    <text class="key-pin" x="136" y="414">GP26 / GP2</text>
  </g>
  <g class="key">
    <rect x="216" y="344" width="132" height="84" rx="12"/>
    <text class="key-label" x="282" y="372">A</text>
    <text class="key-meta" x="282" y="395">R2C1</text>
    <text class="key-pin" x="282" y="414">GP26 / GP3</text>
  </g>
  <g class="key">
    <rect x="362" y="344" width="132" height="84" rx="12"/>
    <text class="key-label" x="428" y="372">S</text>
    <text class="key-meta" x="428" y="395">R2C2</text>
    <text class="key-pin" x="428" y="414">GP26 / GP4</text>
  </g>
  <g class="key">
    <rect x="508" y="344" width="132" height="84" rx="12"/>
    <text class="key-label" x="574" y="372">D</text>
    <text class="key-meta" x="574" y="395">R2C3</text>
    <text class="key-pin" x="574" y="414">GP26 / GP5</text>
  </g>
  <g class="key">
    <rect x="654" y="344" width="132" height="84" rx="12"/>
    <text class="key-label" x="720" y="372">F</text>
    <text class="key-meta" x="720" y="395">R2C4</text>
    <text class="key-pin" x="720" y="414">GP26 / GP6</text>
  </g>
  <g class="key">
    <rect x="800" y="344" width="132" height="84" rx="12"/>
    <text class="key-label" x="866" y="372">G</text>
    <text class="key-meta" x="866" y="395">R2C5</text>
    <text class="key-pin" x="866" y="414">GP26 / GP7</text>
  </g>
  <g class="key">
    <rect x="70" y="442" width="132" height="84" rx="12"/>
    <text class="key-label" x="136" y="470">L Shift</text>
    <text class="key-meta" x="136" y="493">R3C0</text>
    <text class="key-pin" x="136" y="512">GP27 / GP2</text>
  </g>
  <g class="key">
    <rect x="216" y="442" width="132" height="84" rx="12"/>
    <text class="key-label" x="282" y="470">Z</text>
    <text class="key-meta" x="282" y="493">R3C1</text>
    <text class="key-pin" x="282" y="512">GP27 / GP3</text>
  </g>
  <g class="key">
    <rect x="362" y="442" width="132" height="84" rx="12"/>
    <text class="key-label" x="428" y="470">X</text>
    <text class="key-meta" x="428" y="493">R3C2</text>
    <text class="key-pin" x="428" y="512">GP27 / GP4</text>
  </g>
  <g class="key">
    <rect x="508" y="442" width="132" height="84" rx="12"/>
    <text class="key-label" x="574" y="470">C</text>
    <text class="key-meta" x="574" y="493">R3C3</text>
    <text class="key-pin" x="574" y="512">GP27 / GP5</text>
  </g>
  <g class="key">
    <rect x="654" y="442" width="132" height="84" rx="12"/>
    <text class="key-label" x="720" y="470">V</text>
    <text class="key-meta" x="720" y="493">R3C4</text>
    <text class="key-pin" x="720" y="512">GP27 / GP6</text>
  </g>
  <g class="key">
    <rect x="800" y="442" width="132" height="84" rx="12"/>
    <text class="key-label" x="866" y="470">B</text>
    <text class="key-meta" x="866" y="493">R3C5</text>
    <text class="key-pin" x="866" y="512">GP27 / GP7</text>
  </g>
  <g class="key">
    <rect x="70" y="540" width="132" height="84" rx="12"/>
    <text class="key-label" x="136" y="568">Nav/Media</text>
    <text class="key-meta" x="136" y="591">R4C0</text>
    <text class="key-pin" x="136" y="610">GP9 / GP2</text>
  </g>
  <g class="key">
    <rect x="216" y="540" width="132" height="84" rx="12"/>
    <text class="key-label" x="282" y="568">`</text>
    <text class="key-meta" x="282" y="591">R4C1</text>
    <text class="key-pin" x="282" y="610">GP9 / GP3</text>
  </g>
  <g class="key">
    <rect x="362" y="540" width="132" height="84" rx="12"/>
    <text class="key-label" x="428" y="568">Caps</text>
    <text class="key-meta" x="428" y="591">R4C2</text>
    <text class="key-pin" x="428" y="610">GP9 / GP4</text>
  </g>
  <g class="key">
    <rect x="508" y="540" width="132" height="84" rx="12"/>
    <text class="key-label" x="574" y="568">←</text>
    <text class="key-meta" x="574" y="591">R4C3</text>
    <text class="key-pin" x="574" y="610">GP9 / GP5</text>
  </g>
  <g class="key">
    <rect x="654" y="540" width="132" height="84" rx="12"/>
    <text class="key-label" x="720" y="568">→</text>
    <text class="key-meta" x="720" y="591">R4C4</text>
    <text class="key-pin" x="720" y="610">GP9 / GP6</text>
  </g>
  <rect class="warning-box" x="978" y="142" width="390" height="475" rx="18"/>
  <text class="section" x="1008" y="180">Plum Twist 单键 PCB</text>
  <text class="note" x="1008" y="204">视角：热插拔座/焊盘侧（实际焊接面）</text>
  <rect class="controller" x="1042" y="235" width="260" height="170" rx="54"/>
  <circle class="row-pad" cx="1082" cy="320" r="17"/>
  <circle class="col-pad" cx="1262" cy="320" r="17"/>
  <text class="pad-letter" x="1082" y="325">R</text>
  <text class="pad-letter" x="1262" y="325">C</text>
  <rect class="switch" x="1131" y="296" width="46" height="48" rx="7"/>
  <rect class="diode" x="1193" y="306" width="42" height="28" rx="14"/>
  <rect class="diode-band" x="1225" y="306" width="7" height="28"/>
  <path class="flow" d="M1099 320 H1125 M1178 320 H1188 M1236 320 H1241"/>
  <text class="flow-label" x="1172" y="372">R → 开关 → 板载二极管 → C</text>
  <text class="warning" x="1008" y="438">QMK 必须设置：ROW2COL</text>
  <text class="warning" x="1008" y="466">二极管阴极/条纹端固定朝 Column</text>
  <text class="note" x="1008" y="498">不需要外接 1N4148。</text>
  <text class="note" x="1008" y="524">每块 PCB：R 焊盘接同行蓝线；</text>
  <text class="note" x="1008" y="547">C 焊盘接同列黄线。</text>
  <text class="note" x="1008" y="576">+ / − / I / O（RGB）全部留空。</text>

  <line x1="58" y1="650" x2="1382" y2="650" stroke="#536075" stroke-width="2"/>
  <text class="section" x="58" y="690">29 块 PCB 的行列总线</text>
  <text class="subtitle" x="58" y="716">蓝色连接所有 R 焊盘；黄色连接所有 C 焊盘。交叉处不焊接，必须绝缘。</text>
<path class="row-wire" d="M89 821 H864"/>
<text class="row-label" x="79" y="826">R0 · GP14</text>
<path class="row-wire" d="M89 933 H864"/>
<text class="row-label" x="79" y="938">R1 · GP15</text>
<path class="row-wire" d="M89 1045 H864"/>
<text class="row-label" x="79" y="1050">R2 · GP26</text>
<path class="row-wire" d="M89 1157 H864"/>
<text class="row-label" x="79" y="1162">R3 · GP27</text>
<path class="row-wire" d="M89 1269 H718"/>
<text class="row-label" x="79" y="1274">R4 · GP9</text>
<path class="col-wire" d="M200 779 V1269"/>
<text class="col-label" x="200" y="768">C0</text>
<text class="col-pin-label" x="200" y="787">GP2</text>
<path class="col-wire" d="M346 779 V1269"/>
<text class="col-label" x="346" y="768">C1</text>
<text class="col-pin-label" x="346" y="787">GP3</text>
<path class="col-wire" d="M492 779 V1269"/>
<text class="col-label" x="492" y="768">C2</text>
<text class="col-pin-label" x="492" y="787">GP4</text>
<path class="col-wire" d="M638 779 V1269"/>
<text class="col-label" x="638" y="768">C3</text>
<text class="col-pin-label" x="638" y="787">GP5</text>
<path class="col-wire" d="M784 779 V1269"/>
<text class="col-label" x="784" y="768">C4</text>
<text class="col-pin-label" x="784" y="787">GP6</text>
<path class="col-wire" d="M930 779 V1157"/>
<text class="col-label" x="930" y="768">C5</text>
<text class="col-pin-label" x="930" y="787">GP7</text>
  <g class="pcb">
    <rect x="115" y="785" width="104" height="72" rx="18"/>
    <circle class="row-pad" cx="134" cy="821" r="8"/>
    <circle class="col-pad" cx="200" cy="821" r="8"/>
    <text class="pad-letter" x="134" y="825">R</text>
    <text class="pad-letter" x="200" y="825">C</text>
    <rect class="switch" x="154" y="807" width="26" height="28" rx="5"/>
    <path class="internal" d="M142 821 H154 M180 821 H192"/>
    <rect class="band" x="187" y="812" width="5" height="18"/>
    <text class="pcb-index" x="167" y="851">R0C0</text>
  </g>
  <g class="pcb">
    <rect x="261" y="785" width="104" height="72" rx="18"/>
    <circle class="row-pad" cx="280" cy="821" r="8"/>
    <circle class="col-pad" cx="346" cy="821" r="8"/>
    <text class="pad-letter" x="280" y="825">R</text>
    <text class="pad-letter" x="346" y="825">C</text>
    <rect class="switch" x="300" y="807" width="26" height="28" rx="5"/>
    <path class="internal" d="M288 821 H300 M326 821 H338"/>
    <rect class="band" x="333" y="812" width="5" height="18"/>
    <text class="pcb-index" x="313" y="851">R0C1</text>
  </g>
  <g class="pcb">
    <rect x="407" y="785" width="104" height="72" rx="18"/>
    <circle class="row-pad" cx="426" cy="821" r="8"/>
    <circle class="col-pad" cx="492" cy="821" r="8"/>
    <text class="pad-letter" x="426" y="825">R</text>
    <text class="pad-letter" x="492" y="825">C</text>
    <rect class="switch" x="446" y="807" width="26" height="28" rx="5"/>
    <path class="internal" d="M434 821 H446 M472 821 H484"/>
    <rect class="band" x="479" y="812" width="5" height="18"/>
    <text class="pcb-index" x="459" y="851">R0C2</text>
  </g>
  <g class="pcb">
    <rect x="553" y="785" width="104" height="72" rx="18"/>
    <circle class="row-pad" cx="572" cy="821" r="8"/>
    <circle class="col-pad" cx="638" cy="821" r="8"/>
    <text class="pad-letter" x="572" y="825">R</text>
    <text class="pad-letter" x="638" y="825">C</text>
    <rect class="switch" x="592" y="807" width="26" height="28" rx="5"/>
    <path class="internal" d="M580 821 H592 M618 821 H630"/>
    <rect class="band" x="625" y="812" width="5" height="18"/>
    <text class="pcb-index" x="605" y="851">R0C3</text>
  </g>
  <g class="pcb">
    <rect x="699" y="785" width="104" height="72" rx="18"/>
    <circle class="row-pad" cx="718" cy="821" r="8"/>
    <circle class="col-pad" cx="784" cy="821" r="8"/>
    <text class="pad-letter" x="718" y="825">R</text>
    <text class="pad-letter" x="784" y="825">C</text>
    <rect class="switch" x="738" y="807" width="26" height="28" rx="5"/>
    <path class="internal" d="M726 821 H738 M764 821 H776"/>
    <rect class="band" x="771" y="812" width="5" height="18"/>
    <text class="pcb-index" x="751" y="851">R0C4</text>
  </g>
  <g class="pcb">
    <rect x="845" y="785" width="104" height="72" rx="18"/>
    <circle class="row-pad" cx="864" cy="821" r="8"/>
    <circle class="col-pad" cx="930" cy="821" r="8"/>
    <text class="pad-letter" x="864" y="825">R</text>
    <text class="pad-letter" x="930" y="825">C</text>
    <rect class="switch" x="884" y="807" width="26" height="28" rx="5"/>
    <path class="internal" d="M872 821 H884 M910 821 H922"/>
    <rect class="band" x="917" y="812" width="5" height="18"/>
    <text class="pcb-index" x="897" y="851">R0C5</text>
  </g>
  <g class="pcb">
    <rect x="115" y="897" width="104" height="72" rx="18"/>
    <circle class="row-pad" cx="134" cy="933" r="8"/>
    <circle class="col-pad" cx="200" cy="933" r="8"/>
    <text class="pad-letter" x="134" y="937">R</text>
    <text class="pad-letter" x="200" y="937">C</text>
    <rect class="switch" x="154" y="919" width="26" height="28" rx="5"/>
    <path class="internal" d="M142 933 H154 M180 933 H192"/>
    <rect class="band" x="187" y="924" width="5" height="18"/>
    <text class="pcb-index" x="167" y="963">R1C0</text>
  </g>
  <g class="pcb">
    <rect x="261" y="897" width="104" height="72" rx="18"/>
    <circle class="row-pad" cx="280" cy="933" r="8"/>
    <circle class="col-pad" cx="346" cy="933" r="8"/>
    <text class="pad-letter" x="280" y="937">R</text>
    <text class="pad-letter" x="346" y="937">C</text>
    <rect class="switch" x="300" y="919" width="26" height="28" rx="5"/>
    <path class="internal" d="M288 933 H300 M326 933 H338"/>
    <rect class="band" x="333" y="924" width="5" height="18"/>
    <text class="pcb-index" x="313" y="963">R1C1</text>
  </g>
  <g class="pcb">
    <rect x="407" y="897" width="104" height="72" rx="18"/>
    <circle class="row-pad" cx="426" cy="933" r="8"/>
    <circle class="col-pad" cx="492" cy="933" r="8"/>
    <text class="pad-letter" x="426" y="937">R</text>
    <text class="pad-letter" x="492" y="937">C</text>
    <rect class="switch" x="446" y="919" width="26" height="28" rx="5"/>
    <path class="internal" d="M434 933 H446 M472 933 H484"/>
    <rect class="band" x="479" y="924" width="5" height="18"/>
    <text class="pcb-index" x="459" y="963">R1C2</text>
  </g>
  <g class="pcb">
    <rect x="553" y="897" width="104" height="72" rx="18"/>
    <circle class="row-pad" cx="572" cy="933" r="8"/>
    <circle class="col-pad" cx="638" cy="933" r="8"/>
    <text class="pad-letter" x="572" y="937">R</text>
    <text class="pad-letter" x="638" y="937">C</text>
    <rect class="switch" x="592" y="919" width="26" height="28" rx="5"/>
    <path class="internal" d="M580 933 H592 M618 933 H630"/>
    <rect class="band" x="625" y="924" width="5" height="18"/>
    <text class="pcb-index" x="605" y="963">R1C3</text>
  </g>
  <g class="pcb">
    <rect x="699" y="897" width="104" height="72" rx="18"/>
    <circle class="row-pad" cx="718" cy="933" r="8"/>
    <circle class="col-pad" cx="784" cy="933" r="8"/>
    <text class="pad-letter" x="718" y="937">R</text>
    <text class="pad-letter" x="784" y="937">C</text>
    <rect class="switch" x="738" y="919" width="26" height="28" rx="5"/>
    <path class="internal" d="M726 933 H738 M764 933 H776"/>
    <rect class="band" x="771" y="924" width="5" height="18"/>
    <text class="pcb-index" x="751" y="963">R1C4</text>
  </g>
  <g class="pcb">
    <rect x="845" y="897" width="104" height="72" rx="18"/>
    <circle class="row-pad" cx="864" cy="933" r="8"/>
    <circle class="col-pad" cx="930" cy="933" r="8"/>
    <text class="pad-letter" x="864" y="937">R</text>
    <text class="pad-letter" x="930" y="937">C</text>
    <rect class="switch" x="884" y="919" width="26" height="28" rx="5"/>
    <path class="internal" d="M872 933 H884 M910 933 H922"/>
    <rect class="band" x="917" y="924" width="5" height="18"/>
    <text class="pcb-index" x="897" y="963">R1C5</text>
  </g>
  <g class="pcb">
    <rect x="115" y="1009" width="104" height="72" rx="18"/>
    <circle class="row-pad" cx="134" cy="1045" r="8"/>
    <circle class="col-pad" cx="200" cy="1045" r="8"/>
    <text class="pad-letter" x="134" y="1049">R</text>
    <text class="pad-letter" x="200" y="1049">C</text>
    <rect class="switch" x="154" y="1031" width="26" height="28" rx="5"/>
    <path class="internal" d="M142 1045 H154 M180 1045 H192"/>
    <rect class="band" x="187" y="1036" width="5" height="18"/>
    <text class="pcb-index" x="167" y="1075">R2C0</text>
  </g>
  <g class="pcb">
    <rect x="261" y="1009" width="104" height="72" rx="18"/>
    <circle class="row-pad" cx="280" cy="1045" r="8"/>
    <circle class="col-pad" cx="346" cy="1045" r="8"/>
    <text class="pad-letter" x="280" y="1049">R</text>
    <text class="pad-letter" x="346" y="1049">C</text>
    <rect class="switch" x="300" y="1031" width="26" height="28" rx="5"/>
    <path class="internal" d="M288 1045 H300 M326 1045 H338"/>
    <rect class="band" x="333" y="1036" width="5" height="18"/>
    <text class="pcb-index" x="313" y="1075">R2C1</text>
  </g>
  <g class="pcb">
    <rect x="407" y="1009" width="104" height="72" rx="18"/>
    <circle class="row-pad" cx="426" cy="1045" r="8"/>
    <circle class="col-pad" cx="492" cy="1045" r="8"/>
    <text class="pad-letter" x="426" y="1049">R</text>
    <text class="pad-letter" x="492" y="1049">C</text>
    <rect class="switch" x="446" y="1031" width="26" height="28" rx="5"/>
    <path class="internal" d="M434 1045 H446 M472 1045 H484"/>
    <rect class="band" x="479" y="1036" width="5" height="18"/>
    <text class="pcb-index" x="459" y="1075">R2C2</text>
  </g>
  <g class="pcb">
    <rect x="553" y="1009" width="104" height="72" rx="18"/>
    <circle class="row-pad" cx="572" cy="1045" r="8"/>
    <circle class="col-pad" cx="638" cy="1045" r="8"/>
    <text class="pad-letter" x="572" y="1049">R</text>
    <text class="pad-letter" x="638" y="1049">C</text>
    <rect class="switch" x="592" y="1031" width="26" height="28" rx="5"/>
    <path class="internal" d="M580 1045 H592 M618 1045 H630"/>
    <rect class="band" x="625" y="1036" width="5" height="18"/>
    <text class="pcb-index" x="605" y="1075">R2C3</text>
  </g>
  <g class="pcb">
    <rect x="699" y="1009" width="104" height="72" rx="18"/>
    <circle class="row-pad" cx="718" cy="1045" r="8"/>
    <circle class="col-pad" cx="784" cy="1045" r="8"/>
    <text class="pad-letter" x="718" y="1049">R</text>
    <text class="pad-letter" x="784" y="1049">C</text>
    <rect class="switch" x="738" y="1031" width="26" height="28" rx="5"/>
    <path class="internal" d="M726 1045 H738 M764 1045 H776"/>
    <rect class="band" x="771" y="1036" width="5" height="18"/>
    <text class="pcb-index" x="751" y="1075">R2C4</text>
  </g>
  <g class="pcb">
    <rect x="845" y="1009" width="104" height="72" rx="18"/>
    <circle class="row-pad" cx="864" cy="1045" r="8"/>
    <circle class="col-pad" cx="930" cy="1045" r="8"/>
    <text class="pad-letter" x="864" y="1049">R</text>
    <text class="pad-letter" x="930" y="1049">C</text>
    <rect class="switch" x="884" y="1031" width="26" height="28" rx="5"/>
    <path class="internal" d="M872 1045 H884 M910 1045 H922"/>
    <rect class="band" x="917" y="1036" width="5" height="18"/>
    <text class="pcb-index" x="897" y="1075">R2C5</text>
  </g>
  <g class="pcb">
    <rect x="115" y="1121" width="104" height="72" rx="18"/>
    <circle class="row-pad" cx="134" cy="1157" r="8"/>
    <circle class="col-pad" cx="200" cy="1157" r="8"/>
    <text class="pad-letter" x="134" y="1161">R</text>
    <text class="pad-letter" x="200" y="1161">C</text>
    <rect class="switch" x="154" y="1143" width="26" height="28" rx="5"/>
    <path class="internal" d="M142 1157 H154 M180 1157 H192"/>
    <rect class="band" x="187" y="1148" width="5" height="18"/>
    <text class="pcb-index" x="167" y="1187">R3C0</text>
  </g>
  <g class="pcb">
    <rect x="261" y="1121" width="104" height="72" rx="18"/>
    <circle class="row-pad" cx="280" cy="1157" r="8"/>
    <circle class="col-pad" cx="346" cy="1157" r="8"/>
    <text class="pad-letter" x="280" y="1161">R</text>
    <text class="pad-letter" x="346" y="1161">C</text>
    <rect class="switch" x="300" y="1143" width="26" height="28" rx="5"/>
    <path class="internal" d="M288 1157 H300 M326 1157 H338"/>
    <rect class="band" x="333" y="1148" width="5" height="18"/>
    <text class="pcb-index" x="313" y="1187">R3C1</text>
  </g>
  <g class="pcb">
    <rect x="407" y="1121" width="104" height="72" rx="18"/>
    <circle class="row-pad" cx="426" cy="1157" r="8"/>
    <circle class="col-pad" cx="492" cy="1157" r="8"/>
    <text class="pad-letter" x="426" y="1161">R</text>
    <text class="pad-letter" x="492" y="1161">C</text>
    <rect class="switch" x="446" y="1143" width="26" height="28" rx="5"/>
    <path class="internal" d="M434 1157 H446 M472 1157 H484"/>
    <rect class="band" x="479" y="1148" width="5" height="18"/>
    <text class="pcb-index" x="459" y="1187">R3C2</text>
  </g>
  <g class="pcb">
    <rect x="553" y="1121" width="104" height="72" rx="18"/>
    <circle class="row-pad" cx="572" cy="1157" r="8"/>
    <circle class="col-pad" cx="638" cy="1157" r="8"/>
    <text class="pad-letter" x="572" y="1161">R</text>
    <text class="pad-letter" x="638" y="1161">C</text>
    <rect class="switch" x="592" y="1143" width="26" height="28" rx="5"/>
    <path class="internal" d="M580 1157 H592 M618 1157 H630"/>
    <rect class="band" x="625" y="1148" width="5" height="18"/>
    <text class="pcb-index" x="605" y="1187">R3C3</text>
  </g>
  <g class="pcb">
    <rect x="699" y="1121" width="104" height="72" rx="18"/>
    <circle class="row-pad" cx="718" cy="1157" r="8"/>
    <circle class="col-pad" cx="784" cy="1157" r="8"/>
    <text class="pad-letter" x="718" y="1161">R</text>
    <text class="pad-letter" x="784" y="1161">C</text>
    <rect class="switch" x="738" y="1143" width="26" height="28" rx="5"/>
    <path class="internal" d="M726 1157 H738 M764 1157 H776"/>
    <rect class="band" x="771" y="1148" width="5" height="18"/>
    <text class="pcb-index" x="751" y="1187">R3C4</text>
  </g>
  <g class="pcb">
    <rect x="845" y="1121" width="104" height="72" rx="18"/>
    <circle class="row-pad" cx="864" cy="1157" r="8"/>
    <circle class="col-pad" cx="930" cy="1157" r="8"/>
    <text class="pad-letter" x="864" y="1161">R</text>
    <text class="pad-letter" x="930" y="1161">C</text>
    <rect class="switch" x="884" y="1143" width="26" height="28" rx="5"/>
    <path class="internal" d="M872 1157 H884 M910 1157 H922"/>
    <rect class="band" x="917" y="1148" width="5" height="18"/>
    <text class="pcb-index" x="897" y="1187">R3C5</text>
  </g>
  <g class="pcb">
    <rect x="115" y="1233" width="104" height="72" rx="18"/>
    <circle class="row-pad" cx="134" cy="1269" r="8"/>
    <circle class="col-pad" cx="200" cy="1269" r="8"/>
    <text class="pad-letter" x="134" y="1273">R</text>
    <text class="pad-letter" x="200" y="1273">C</text>
    <rect class="switch" x="154" y="1255" width="26" height="28" rx="5"/>
    <path class="internal" d="M142 1269 H154 M180 1269 H192"/>
    <rect class="band" x="187" y="1260" width="5" height="18"/>
    <text class="pcb-index" x="167" y="1299">R4C0</text>
  </g>
  <g class="pcb">
    <rect x="261" y="1233" width="104" height="72" rx="18"/>
    <circle class="row-pad" cx="280" cy="1269" r="8"/>
    <circle class="col-pad" cx="346" cy="1269" r="8"/>
    <text class="pad-letter" x="280" y="1273">R</text>
    <text class="pad-letter" x="346" y="1273">C</text>
    <rect class="switch" x="300" y="1255" width="26" height="28" rx="5"/>
    <path class="internal" d="M288 1269 H300 M326 1269 H338"/>
    <rect class="band" x="333" y="1260" width="5" height="18"/>
    <text class="pcb-index" x="313" y="1299">R4C1</text>
  </g>
  <g class="pcb">
    <rect x="407" y="1233" width="104" height="72" rx="18"/>
    <circle class="row-pad" cx="426" cy="1269" r="8"/>
    <circle class="col-pad" cx="492" cy="1269" r="8"/>
    <text class="pad-letter" x="426" y="1273">R</text>
    <text class="pad-letter" x="492" y="1273">C</text>
    <rect class="switch" x="446" y="1255" width="26" height="28" rx="5"/>
    <path class="internal" d="M434 1269 H446 M472 1269 H484"/>
    <rect class="band" x="479" y="1260" width="5" height="18"/>
    <text class="pcb-index" x="459" y="1299">R4C2</text>
  </g>
  <g class="pcb">
    <rect x="553" y="1233" width="104" height="72" rx="18"/>
    <circle class="row-pad" cx="572" cy="1269" r="8"/>
    <circle class="col-pad" cx="638" cy="1269" r="8"/>
    <text class="pad-letter" x="572" y="1273">R</text>
    <text class="pad-letter" x="638" y="1273">C</text>
    <rect class="switch" x="592" y="1255" width="26" height="28" rx="5"/>
    <path class="internal" d="M580 1269 H592 M618 1269 H630"/>
    <rect class="band" x="625" y="1260" width="5" height="18"/>
    <text class="pcb-index" x="605" y="1299">R4C3</text>
  </g>
  <g class="pcb">
    <rect x="699" y="1233" width="104" height="72" rx="18"/>
    <circle class="row-pad" cx="718" cy="1269" r="8"/>
    <circle class="col-pad" cx="784" cy="1269" r="8"/>
    <text class="pad-letter" x="718" y="1273">R</text>
    <text class="pad-letter" x="784" y="1273">C</text>
    <rect class="switch" x="738" y="1255" width="26" height="28" rx="5"/>
    <path class="internal" d="M726 1269 H738 M764 1269 H776"/>
    <rect class="band" x="771" y="1260" width="5" height="18"/>
    <text class="pcb-index" x="751" y="1299">R4C4</text>
  </g>

  <rect class="controller" x="1010" y="750" width="355" height="540" rx="18"/>
  <text class="controller-title" x="1188" y="788">RP2040-Zero 引脚总表</text>
  <text class="pin" x="1042" y="830">R0 → GP14</text>
  <text class="pin" x="1042" y="858">R1 → GP15</text>
  <text class="pin" x="1042" y="886">R2 → GP26</text>
  <text class="pin" x="1042" y="914">R3 → GP27</text>
  <text class="pin" x="1042" y="942">R4 → GP9</text>
  <text class="pin" x="1190" y="830">C0 → GP2</text>
  <text class="pin" x="1190" y="858">C1 → GP3</text>
  <text class="pin" x="1190" y="886">C2 → GP4</text>
  <text class="pin" x="1190" y="914">C3 → GP5</text>
  <text class="pin" x="1190" y="942">C4 → GP6</text>
  <text class="pin" x="1190" y="970">C5 → GP7</text>
  <line x1="1038" y1="992" x2="1338" y2="992" stroke="#536075" stroke-width="2"/>
  <text class="pin" x="1042" y="1028">Joy X → GP28 / ADC2</text>
  <text class="pin" x="1042" y="1056">Joy Y → GP29 / ADC3</text>
  <text class="pin" x="1042" y="1084">Joy SW → GP8（内部上拉）</text>
  <text class="pin" x="1042" y="1112">Joy VCC → 3V3</text>
  <text class="pin" x="1042" y="1140">Joy GND → GND</text>
  <text class="warning" x="1042" y="1182">Joy-Con 绝对不要接 5V</text>
  <text class="note" x="1042" y="1214">无右手、无 TRS、无分体数据线。</text>
  <text class="note" x="1042" y="1240">GP0/GP1 保留；GP8 只给摇杆按压。</text>

  <line x1="58" y1="1332" x2="1382" y2="1332" stroke="#536075" stroke-width="2"/>
  <text class="section" x="58" y="1372">Joy-Con 5 针转接板</text>
  <rect class="joy" x="70" y="1410" width="260" height="185" rx="28"/>
  <circle class="joy-stick" cx="200" cy="1483" r="48"/>
  <text class="controller-title" x="200" y="1570">Joy-Con 摇杆</text>
  <text class="note" x="200" y="1590" text-anchor="middle">5P FPC 转接板</text>
  <rect class="controller" x="1040" y="1395" width="320" height="215" rx="18"/>
  <text class="controller-title" x="1200" y="1430">RP2040-Zero</text>
  <text class="pin" x="1080" y="1470">3V3</text>
  <text class="pin" x="1080" y="1500">GND</text>
  <text class="pin" x="1080" y="1530">GP28</text>
  <text class="pin" x="1080" y="1560">GP29</text>
  <text class="pin" x="1080" y="1590">GP8</text>
  <path class="joy-wire wire-vcc" d="M330 1440 C600 1390 820 1390 1040 1470"/>
  <path class="joy-wire wire-gnd" d="M330 1470 C600 1450 820 1450 1040 1500"/>
  <path class="joy-wire wire-x" d="M330 1500 C600 1500 820 1500 1040 1530"/>
  <path class="joy-wire wire-y" d="M330 1530 C600 1550 820 1550 1040 1560"/>
  <path class="joy-wire wire-sw" d="M330 1560 C600 1610 820 1610 1040 1590"/>
  <text class="pin" x="355" y="1422">VCC → 3V3</text>
  <text class="pin" x="505" y="1472">GND → GND</text>
  <text class="pin" x="640" y="1508">X → GP28</text>
  <text class="pin" x="775" y="1552">Y → GP29</text>
  <text class="pin" x="885" y="1600">SW → GP8</text>
  <text class="warning" x="390" y="1640">固件：X/Y → WASD；SW 按下（接地）→ Space。上电时松开摇杆并静置约 1 秒。</text>
</svg>
