<?xml version="1.0" encoding="UTF-8"?>
<svg xmlns="http://www.w3.org/2000/svg" width="1750" height="1120" viewBox="0 0 1750 1120"
     role="img" aria-labelledby="title description">
  <title id="title">Kinesis Dactyl 5x7 每键矩阵与 GPIO 接线图</title>
  <desc id="description">76 个 VIA 可见键的本地矩阵行列、QMK 全局坐标以及行列 GPIO 引脚对。</desc>
  <style>
    :root {
      color-scheme: dark;
    }
    text {
      font-family: Inter, "SF Pro Text", "PingFang SC", "Microsoft YaHei", sans-serif;
      fill: #e8edf5;
    }
    .background {
      fill: #171b22;
    }
    .frame {
      fill: #202630;
      stroke: #697386;
      stroke-width: 2;
    }
    .key-shape {
      fill: #303946;
      stroke: #79879a;
      stroke-width: 2;
    }
    .left .key-shape {
      fill: #263b4a;
      stroke: #6fa8c7;
    }
    .right .key-shape {
      fill: #3a304b;
      stroke: #a68ac7;
    }
    .thumb .key-shape {
      stroke-width: 3;
    }
    .key-meta, .key-matrix, .key-pins {
      text-anchor: middle;
      dominant-baseline: middle;
    }
    .key-meta {
      fill: #b8c2d1;
      font-size: 9px;
      font-weight: 500;
    }
    .key-matrix {
      fill: #ffffff;
      font-size: 15px;
      font-weight: 700;
    }
    .key-pins {
      fill: #ffd479;
      font-size: 11px;
      font-weight: 650;
    }
    .title {
      font-size: 30px;
      font-weight: 750;
    }
    .subtitle {
      fill: #bbc5d4;
      font-size: 14px;
    }
    .section {
      font-size: 17px;
      font-weight: 700;
    }
    .legend {
      fill: #c8d0dc;
      font-size: 14px;
    }
    .warning {
      fill: #ffce72;
      font-size: 14px;
      font-weight: 600;
    }
    .left-label {
      fill: #8dc9e8;
    }
    .right-label {
      fill: #c4a5e5;
    }
  </style>

  <rect class="background" width="1750" height="1120"/>
  <rect class="frame" x="22" y="18" width="1706" height="1080" rx="24"/>

  <text class="title" x="60" y="55">Kinesis Dactyl 5x7 — 每键矩阵 / GPIO 接线图</text>
  <text class="subtitle" x="60" y="79">
    每键三行：侧与 QMK 全局坐标 / 本地 R-C / 行 GPIO 与列 GPIO。右半本地 R0–R5 在 QMK 中映射为全局行 6–11。
  </text>
  <text class="section left-label" x="60" y="94">左半</text>
  <text class="section right-label" x="1640" y="94" text-anchor="end">右半</text>

  <g class="key left">
    <rect class="key-shape" x="60" y="100" width="90" height="84" rx="9"/>
    <text class="key-meta" x="105" y="122">L · [0,0]</text>
    <text class="key-matrix" x="105" y="144">R0 C0</text>
    <text class="key-pins" x="105" y="164">GP14 / GP2</text>
  </g>
  <g class="key left">
    <rect class="key-shape" x="156" y="100" width="90" height="84" rx="9"/>
    <text class="key-meta" x="201" y="122">L · [0,1]</text>
    <text class="key-matrix" x="201" y="144">R0 C1</text>
    <text class="key-pins" x="201" y="164">GP14 / GP3</text>
  </g>
  <g class="key left">
    <rect class="key-shape" x="252" y="100" width="90" height="84" rx="9"/>
    <text class="key-meta" x="297" y="122">L · [0,2]</text>
    <text class="key-matrix" x="297" y="144">R0 C2</text>
    <text class="key-pins" x="297" y="164">GP14 / GP4</text>
  </g>
  <g class="key left">
    <rect class="key-shape" x="348" y="100" width="90" height="84" rx="9"/>
    <text class="key-meta" x="393" y="122">L · [0,3]</text>
    <text class="key-matrix" x="393" y="144">R0 C3</text>
    <text class="key-pins" x="393" y="164">GP14 / GP5</text>
  </g>
  <g class="key left">
    <rect class="key-shape" x="444" y="100" width="90" height="84" rx="9"/>
    <text class="key-meta" x="489" y="122">L · [0,4]</text>
    <text class="key-matrix" x="489" y="144">R0 C4</text>
    <text class="key-pins" x="489" y="164">GP14 / GP6</text>
  </g>
  <g class="key left">
    <rect class="key-shape" x="540" y="100" width="90" height="84" rx="9"/>
    <text class="key-meta" x="585" y="122">L · [0,5]</text>
    <text class="key-matrix" x="585" y="144">R0 C5</text>
    <text class="key-pins" x="585" y="164">GP14 / GP7</text>
  </g>
  <g class="key left">
    <rect class="key-shape" x="60" y="190" width="90" height="84" rx="9"/>
    <text class="key-meta" x="105" y="212">L · [1,0]</text>
    <text class="key-matrix" x="105" y="234">R1 C0</text>
    <text class="key-pins" x="105" y="254">GP15 / GP2</text>
  </g>
  <g class="key left">
    <rect class="key-shape" x="156" y="190" width="90" height="84" rx="9"/>
    <text class="key-meta" x="201" y="212">L · [1,1]</text>
    <text class="key-matrix" x="201" y="234">R1 C1</text>
    <text class="key-pins" x="201" y="254">GP15 / GP3</text>
  </g>
  <g class="key left">
    <rect class="key-shape" x="252" y="190" width="90" height="84" rx="9"/>
    <text class="key-meta" x="297" y="212">L · [1,2]</text>
    <text class="key-matrix" x="297" y="234">R1 C2</text>
    <text class="key-pins" x="297" y="254">GP15 / GP4</text>
  </g>
  <g class="key left">
    <rect class="key-shape" x="348" y="190" width="90" height="84" rx="9"/>
    <text class="key-meta" x="393" y="212">L · [1,3]</text>
    <text class="key-matrix" x="393" y="234">R1 C3</text>
    <text class="key-pins" x="393" y="254">GP15 / GP5</text>
  </g>
  <g class="key left">
    <rect class="key-shape" x="444" y="190" width="90" height="84" rx="9"/>
    <text class="key-meta" x="489" y="212">L · [1,4]</text>
    <text class="key-matrix" x="489" y="234">R1 C4</text>
    <text class="key-pins" x="489" y="254">GP15 / GP6</text>
  </g>
  <g class="key left">
    <rect class="key-shape" x="540" y="190" width="90" height="84" rx="9"/>
    <text class="key-meta" x="585" y="212">L · [1,5]</text>
    <text class="key-matrix" x="585" y="234">R1 C5</text>
    <text class="key-pins" x="585" y="254">GP15 / GP7</text>
  </g>
  <g class="key left">
    <rect class="key-shape" x="60" y="280" width="90" height="84" rx="9"/>
    <text class="key-meta" x="105" y="302">L · [2,0]</text>
    <text class="key-matrix" x="105" y="324">R2 C0</text>
    <text class="key-pins" x="105" y="344">GP26 / GP2</text>
  </g>
  <g class="key left">
    <rect class="key-shape" x="156" y="280" width="90" height="84" rx="9"/>
    <text class="key-meta" x="201" y="302">L · [2,1]</text>
    <text class="key-matrix" x="201" y="324">R2 C1</text>
    <text class="key-pins" x="201" y="344">GP26 / GP3</text>
  </g>
  <g class="key left">
    <rect class="key-shape" x="252" y="280" width="90" height="84" rx="9"/>
    <text class="key-meta" x="297" y="302">L · [2,2]</text>
    <text class="key-matrix" x="297" y="324">R2 C2</text>
    <text class="key-pins" x="297" y="344">GP26 / GP4</text>
  </g>
  <g class="key left">
    <rect class="key-shape" x="348" y="280" width="90" height="84" rx="9"/>
    <text class="key-meta" x="393" y="302">L · [2,3]</text>
    <text class="key-matrix" x="393" y="324">R2 C3</text>
    <text class="key-pins" x="393" y="344">GP26 / GP5</text>
  </g>
  <g class="key left">
    <rect class="key-shape" x="444" y="280" width="90" height="84" rx="9"/>
    <text class="key-meta" x="489" y="302">L · [2,4]</text>
    <text class="key-matrix" x="489" y="324">R2 C4</text>
    <text class="key-pins" x="489" y="344">GP26 / GP6</text>
  </g>
  <g class="key left">
    <rect class="key-shape" x="540" y="280" width="90" height="84" rx="9"/>
    <text class="key-meta" x="585" y="302">L · [2,5]</text>
    <text class="key-matrix" x="585" y="324">R2 C5</text>
    <text class="key-pins" x="585" y="344">GP26 / GP7</text>
  </g>
  <g class="key left">
    <rect class="key-shape" x="60" y="370" width="90" height="84" rx="9"/>
    <text class="key-meta" x="105" y="392">L · [3,0]</text>
    <text class="key-matrix" x="105" y="414">R3 C0</text>
    <text class="key-pins" x="105" y="434">GP27 / GP2</text>
  </g>
  <g class="key left">
    <rect class="key-shape" x="156" y="370" width="90" height="84" rx="9"/>
    <text class="key-meta" x="201" y="392">L · [3,1]</text>
    <text class="key-matrix" x="201" y="414">R3 C1</text>
    <text class="key-pins" x="201" y="434">GP27 / GP3</text>
  </g>
  <g class="key left">
    <rect class="key-shape" x="252" y="370" width="90" height="84" rx="9"/>
    <text class="key-meta" x="297" y="392">L · [3,2]</text>
    <text class="key-matrix" x="297" y="414">R3 C2</text>
    <text class="key-pins" x="297" y="434">GP27 / GP4</text>
  </g>
  <g class="key left">
    <rect class="key-shape" x="348" y="370" width="90" height="84" rx="9"/>
    <text class="key-meta" x="393" y="392">L · [3,3]</text>
    <text class="key-matrix" x="393" y="414">R3 C3</text>
    <text class="key-pins" x="393" y="434">GP27 / GP5</text>
  </g>
  <g class="key left">
    <rect class="key-shape" x="444" y="370" width="90" height="84" rx="9"/>
    <text class="key-meta" x="489" y="392">L · [3,4]</text>
    <text class="key-matrix" x="489" y="414">R3 C4</text>
    <text class="key-pins" x="489" y="434">GP27 / GP6</text>
  </g>
  <g class="key left">
    <rect class="key-shape" x="540" y="370" width="90" height="84" rx="9"/>
    <text class="key-meta" x="585" y="392">L · [3,5]</text>
    <text class="key-matrix" x="585" y="414">R3 C5</text>
    <text class="key-pins" x="585" y="434">GP27 / GP7</text>
  </g>
  <g class="key left">
    <rect class="key-shape" x="60" y="460" width="90" height="84" rx="9"/>
    <text class="key-meta" x="105" y="482">L · [4,0]</text>
    <text class="key-matrix" x="105" y="504">R4 C0</text>
    <text class="key-pins" x="105" y="524">GP28 / GP2</text>
  </g>
  <g class="key left">
    <rect class="key-shape" x="156" y="460" width="90" height="84" rx="9"/>
    <text class="key-meta" x="201" y="482">L · [4,1]</text>
    <text class="key-matrix" x="201" y="504">R4 C1</text>
    <text class="key-pins" x="201" y="524">GP28 / GP3</text>
  </g>
  <g class="key left">
    <rect class="key-shape" x="252" y="460" width="90" height="84" rx="9"/>
    <text class="key-meta" x="297" y="482">L · [4,2]</text>
    <text class="key-matrix" x="297" y="504">R4 C2</text>
    <text class="key-pins" x="297" y="524">GP28 / GP4</text>
  </g>
  <g class="key left">
    <rect class="key-shape" x="348" y="460" width="90" height="84" rx="9"/>
    <text class="key-meta" x="393" y="482">L · [4,3]</text>
    <text class="key-matrix" x="393" y="504">R4 C3</text>
    <text class="key-pins" x="393" y="524">GP28 / GP5</text>
  </g>
  <g class="key left">
    <rect class="key-shape" x="444" y="460" width="90" height="84" rx="9"/>
    <text class="key-meta" x="489" y="482">L · [4,4]</text>
    <text class="key-matrix" x="489" y="504">R4 C4</text>
    <text class="key-pins" x="489" y="524">GP28 / GP6</text>
  </g>
  <g class="key left">
    <rect class="key-shape" x="636" y="100" width="90" height="84" rx="9"/>
    <text class="key-meta" x="681" y="122">L · [1,6]</text>
    <text class="key-matrix" x="681" y="144">R1 C6</text>
    <text class="key-pins" x="681" y="164">GP15 / GP8</text>
  </g>
  <g class="key left">
    <rect class="key-shape" x="636" y="190" width="90" height="84" rx="9"/>
    <text class="key-meta" x="681" y="212">L · [2,6]</text>
    <text class="key-matrix" x="681" y="234">R2 C6</text>
    <text class="key-pins" x="681" y="254">GP26 / GP8</text>
  </g>
  <g class="key left">
    <rect class="key-shape" x="636" y="280" width="90" height="84" rx="9"/>
    <text class="key-meta" x="681" y="302">L · [3,6]</text>
    <text class="key-matrix" x="681" y="324">R3 C6</text>
    <text class="key-pins" x="681" y="344">GP27 / GP8</text>
  </g>
  <g class="key right">
    <rect class="key-shape" x="1146" y="100" width="90" height="84" rx="9"/>
    <text class="key-meta" x="1191" y="122">R · [6,5]</text>
    <text class="key-matrix" x="1191" y="144">R0 C5</text>
    <text class="key-pins" x="1191" y="164">GP14 / GP7</text>
  </g>
  <g class="key right">
    <rect class="key-shape" x="1242" y="100" width="90" height="84" rx="9"/>
    <text class="key-meta" x="1287" y="122">R · [6,4]</text>
    <text class="key-matrix" x="1287" y="144">R0 C4</text>
    <text class="key-pins" x="1287" y="164">GP14 / GP6</text>
  </g>
  <g class="key right">
    <rect class="key-shape" x="1338" y="100" width="90" height="84" rx="9"/>
    <text class="key-meta" x="1383" y="122">R · [6,3]</text>
    <text class="key-matrix" x="1383" y="144">R0 C3</text>
    <text class="key-pins" x="1383" y="164">GP14 / GP5</text>
  </g>
  <g class="key right">
    <rect class="key-shape" x="1434" y="100" width="90" height="84" rx="9"/>
    <text class="key-meta" x="1479" y="122">R · [6,2]</text>
    <text class="key-matrix" x="1479" y="144">R0 C2</text>
    <text class="key-pins" x="1479" y="164">GP14 / GP4</text>
  </g>
  <g class="key right">
    <rect class="key-shape" x="1530" y="100" width="90" height="84" rx="9"/>
    <text class="key-meta" x="1575" y="122">R · [6,1]</text>
    <text class="key-matrix" x="1575" y="144">R0 C1</text>
    <text class="key-pins" x="1575" y="164">GP14 / GP3</text>
  </g>
  <g class="key right">
    <rect class="key-shape" x="1626" y="100" width="90" height="84" rx="9"/>
    <text class="key-meta" x="1671" y="122">R · [6,0]</text>
    <text class="key-matrix" x="1671" y="144">R0 C0</text>
    <text class="key-pins" x="1671" y="164">GP14 / GP2</text>
  </g>
  <g class="key right">
    <rect class="key-shape" x="1146" y="190" width="90" height="84" rx="9"/>
    <text class="key-meta" x="1191" y="212">R · [7,5]</text>
    <text class="key-matrix" x="1191" y="234">R1 C5</text>
    <text class="key-pins" x="1191" y="254">GP15 / GP7</text>
  </g>
  <g class="key right">
    <rect class="key-shape" x="1242" y="190" width="90" height="84" rx="9"/>
    <text class="key-meta" x="1287" y="212">R · [7,4]</text>
    <text class="key-matrix" x="1287" y="234">R1 C4</text>
    <text class="key-pins" x="1287" y="254">GP15 / GP6</text>
  </g>
  <g class="key right">
    <rect class="key-shape" x="1338" y="190" width="90" height="84" rx="9"/>
    <text class="key-meta" x="1383" y="212">R · [7,3]</text>
    <text class="key-matrix" x="1383" y="234">R1 C3</text>
    <text class="key-pins" x="1383" y="254">GP15 / GP5</text>
  </g>
  <g class="key right">
    <rect class="key-shape" x="1434" y="190" width="90" height="84" rx="9"/>
    <text class="key-meta" x="1479" y="212">R · [7,2]</text>
    <text class="key-matrix" x="1479" y="234">R1 C2</text>
    <text class="key-pins" x="1479" y="254">GP15 / GP4</text>
  </g>
  <g class="key right">
    <rect class="key-shape" x="1530" y="190" width="90" height="84" rx="9"/>
    <text class="key-meta" x="1575" y="212">R · [7,1]</text>
    <text class="key-matrix" x="1575" y="234">R1 C1</text>
    <text class="key-pins" x="1575" y="254">GP15 / GP3</text>
  </g>
  <g class="key right">
    <rect class="key-shape" x="1626" y="190" width="90" height="84" rx="9"/>
    <text class="key-meta" x="1671" y="212">R · [7,0]</text>
    <text class="key-matrix" x="1671" y="234">R1 C0</text>
    <text class="key-pins" x="1671" y="254">GP15 / GP2</text>
  </g>
  <g class="key right">
    <rect class="key-shape" x="1146" y="280" width="90" height="84" rx="9"/>
    <text class="key-meta" x="1191" y="302">R · [8,5]</text>
    <text class="key-matrix" x="1191" y="324">R2 C5</text>
    <text class="key-pins" x="1191" y="344">GP26 / GP7</text>
  </g>
  <g class="key right">
    <rect class="key-shape" x="1242" y="280" width="90" height="84" rx="9"/>
    <text class="key-meta" x="1287" y="302">R · [8,4]</text>
    <text class="key-matrix" x="1287" y="324">R2 C4</text>
    <text class="key-pins" x="1287" y="344">GP26 / GP6</text>
  </g>
  <g class="key right">
    <rect class="key-shape" x="1338" y="280" width="90" height="84" rx="9"/>
    <text class="key-meta" x="1383" y="302">R · [8,3]</text>
    <text class="key-matrix" x="1383" y="324">R2 C3</text>
    <text class="key-pins" x="1383" y="344">GP26 / GP5</text>
  </g>
  <g class="key right">
    <rect class="key-shape" x="1434" y="280" width="90" height="84" rx="9"/>
    <text class="key-meta" x="1479" y="302">R · [8,2]</text>
    <text class="key-matrix" x="1479" y="324">R2 C2</text>
    <text class="key-pins" x="1479" y="344">GP26 / GP4</text>
  </g>
  <g class="key right">
    <rect class="key-shape" x="1530" y="280" width="90" height="84" rx="9"/>
    <text class="key-meta" x="1575" y="302">R · [8,1]</text>
    <text class="key-matrix" x="1575" y="324">R2 C1</text>
    <text class="key-pins" x="1575" y="344">GP26 / GP3</text>
  </g>
  <g class="key right">
    <rect class="key-shape" x="1626" y="280" width="90" height="84" rx="9"/>
    <text class="key-meta" x="1671" y="302">R · [8,0]</text>
    <text class="key-matrix" x="1671" y="324">R2 C0</text>
    <text class="key-pins" x="1671" y="344">GP26 / GP2</text>
  </g>
  <g class="key right">
    <rect class="key-shape" x="1146" y="370" width="90" height="84" rx="9"/>
    <text class="key-meta" x="1191" y="392">R · [9,5]</text>
    <text class="key-matrix" x="1191" y="414">R3 C5</text>
    <text class="key-pins" x="1191" y="434">GP27 / GP7</text>
  </g>
  <g class="key right">
    <rect class="key-shape" x="1242" y="370" width="90" height="84" rx="9"/>
    <text class="key-meta" x="1287" y="392">R · [9,4]</text>
    <text class="key-matrix" x="1287" y="414">R3 C4</text>
    <text class="key-pins" x="1287" y="434">GP27 / GP6</text>
  </g>
  <g class="key right">
    <rect class="key-shape" x="1338" y="370" width="90" height="84" rx="9"/>
    <text class="key-meta" x="1383" y="392">R · [9,3]</text>
    <text class="key-matrix" x="1383" y="414">R3 C3</text>
    <text class="key-pins" x="1383" y="434">GP27 / GP5</text>
  </g>
  <g class="key right">
    <rect class="key-shape" x="1434" y="370" width="90" height="84" rx="9"/>
    <text class="key-meta" x="1479" y="392">R · [9,2]</text>
    <text class="key-matrix" x="1479" y="414">R3 C2</text>
    <text class="key-pins" x="1479" y="434">GP27 / GP4</text>
  </g>
  <g class="key right">
    <rect class="key-shape" x="1530" y="370" width="90" height="84" rx="9"/>
    <text class="key-meta" x="1575" y="392">R · [9,1]</text>
    <text class="key-matrix" x="1575" y="414">R3 C1</text>
    <text class="key-pins" x="1575" y="434">GP27 / GP3</text>
  </g>
  <g class="key right">
    <rect class="key-shape" x="1626" y="370" width="90" height="84" rx="9"/>
    <text class="key-meta" x="1671" y="392">R · [9,0]</text>
    <text class="key-matrix" x="1671" y="414">R3 C0</text>
    <text class="key-pins" x="1671" y="434">GP27 / GP2</text>
  </g>
  <g class="key right">
    <rect class="key-shape" x="1242" y="460" width="90" height="84" rx="9"/>
    <text class="key-meta" x="1287" y="482">R · [10,4]</text>
    <text class="key-matrix" x="1287" y="504">R4 C4</text>
    <text class="key-pins" x="1287" y="524">GP28 / GP6</text>
  </g>
  <g class="key right">
    <rect class="key-shape" x="1338" y="460" width="90" height="84" rx="9"/>
    <text class="key-meta" x="1383" y="482">R · [10,3]</text>
    <text class="key-matrix" x="1383" y="504">R4 C3</text>
    <text class="key-pins" x="1383" y="524">GP28 / GP5</text>
  </g>
  <g class="key right">
    <rect class="key-shape" x="1434" y="460" width="90" height="84" rx="9"/>
    <text class="key-meta" x="1479" y="482">R · [10,2]</text>
    <text class="key-matrix" x="1479" y="504">R4 C2</text>
    <text class="key-pins" x="1479" y="524">GP28 / GP4</text>
  </g>
  <g class="key right">
    <rect class="key-shape" x="1530" y="460" width="90" height="84" rx="9"/>
    <text class="key-meta" x="1575" y="482">R · [10,1]</text>
    <text class="key-matrix" x="1575" y="504">R4 C1</text>
    <text class="key-pins" x="1575" y="524">GP28 / GP3</text>
  </g>
  <g class="key right">
    <rect class="key-shape" x="1626" y="460" width="90" height="84" rx="9"/>
    <text class="key-meta" x="1671" y="482">R · [10,0]</text>
    <text class="key-matrix" x="1671" y="504">R4 C0</text>
    <text class="key-pins" x="1671" y="524">GP28 / GP2</text>
  </g>
  <g class="key right">
    <rect class="key-shape" x="1050" y="100" width="90" height="84" rx="9"/>
    <text class="key-meta" x="1095" y="122">R · [7,6]</text>
    <text class="key-matrix" x="1095" y="144">R1 C6</text>
    <text class="key-pins" x="1095" y="164">GP15 / GP8</text>
  </g>
  <g class="key right">
    <rect class="key-shape" x="1050" y="190" width="90" height="84" rx="9"/>
    <text class="key-meta" x="1095" y="212">R · [8,6]</text>
    <text class="key-matrix" x="1095" y="234">R2 C6</text>
    <text class="key-pins" x="1095" y="254">GP26 / GP8</text>
  </g>
  <g class="key right">
    <rect class="key-shape" x="1050" y="280" width="90" height="84" rx="9"/>
    <text class="key-meta" x="1095" y="302">R · [9,6]</text>
    <text class="key-matrix" x="1095" y="324">R3 C6</text>
    <text class="key-pins" x="1095" y="344">GP27 / GP8</text>
  </g>
  <g class="key left thumb" transform="rotate(10 620 760)">
    <rect class="key-shape" x="576" y="630" width="90" height="84" rx="9"/>
    <text class="key-meta" x="621" y="652">L Ctrl · [5,0]</text>
    <text class="key-matrix" x="621" y="674">R5 C0</text>
    <text class="key-pins" x="621" y="694">GP29 / GP2</text>
  </g>
  <g class="key left thumb" transform="rotate(10 620 760)">
    <rect class="key-shape" x="672" y="630" width="90" height="84" rx="9"/>
    <text class="key-meta" x="717" y="652">L Alt · [5,2]</text>
    <text class="key-matrix" x="717" y="674">R5 C2</text>
    <text class="key-pins" x="717" y="694">GP29 / GP4</text>
  </g>
  <g class="key left thumb" transform="rotate(10 620 760)">
    <rect class="key-shape" x="480" y="720" width="90" height="180" rx="9"/>
    <text class="key-meta" x="525" y="787">L Backspace · [5,4]</text>
    <text class="key-matrix" x="525" y="809">R5 C4</text>
    <text class="key-pins" x="525" y="829">GP29 / GP6</text>
  </g>
  <g class="key left thumb" transform="rotate(10 620 760)">
    <rect class="key-shape" x="576" y="720" width="90" height="180" rx="9"/>
    <text class="key-meta" x="621" y="787">L Delete · [5,6]</text>
    <text class="key-matrix" x="621" y="809">R5 C6</text>
    <text class="key-pins" x="621" y="829">GP29 / GP8</text>
  </g>
  <g class="key left thumb" transform="rotate(10 620 760)">
    <rect class="key-shape" x="672" y="720" width="90" height="84" rx="9"/>
    <text class="key-meta" x="717" y="742">L Home · [5,1]</text>
    <text class="key-matrix" x="717" y="764">R5 C1</text>
    <text class="key-pins" x="717" y="784">GP29 / GP3</text>
  </g>
  <g class="key left thumb" transform="rotate(10 620 760)">
    <rect class="key-shape" x="672" y="810" width="90" height="84" rx="9"/>
    <text class="key-meta" x="717" y="832">L End · [5,5]</text>
    <text class="key-matrix" x="717" y="854">R5 C5</text>
    <text class="key-pins" x="717" y="874">GP29 / GP7</text>
  </g>
  <g class="key right thumb" transform="rotate(-10 1160 760)">
    <rect class="key-shape" x="1050" y="630" width="90" height="84" rx="9"/>
    <text class="key-meta" x="1095" y="652">R GUI/Win · [11,4]</text>
    <text class="key-matrix" x="1095" y="674">R5 C4</text>
    <text class="key-pins" x="1095" y="694">GP29 / GP6</text>
  </g>
  <g class="key right thumb" transform="rotate(-10 1160 760)">
    <rect class="key-shape" x="1146" y="630" width="90" height="84" rx="9"/>
    <text class="key-meta" x="1191" y="652">R Ctrl · [11,2]</text>
    <text class="key-matrix" x="1191" y="674">R5 C2</text>
    <text class="key-pins" x="1191" y="694">GP29 / GP4</text>
  </g>
  <g class="key right thumb" transform="rotate(-10 1160 760)">
    <rect class="key-shape" x="1050" y="720" width="90" height="84" rx="9"/>
    <text class="key-meta" x="1095" y="742">R Page Up · [11,6]</text>
    <text class="key-matrix" x="1095" y="764">R5 C6</text>
    <text class="key-pins" x="1095" y="784">GP29 / GP8</text>
  </g>
  <g class="key right thumb" transform="rotate(-10 1160 760)">
    <rect class="key-shape" x="1146" y="720" width="90" height="180" rx="9"/>
    <text class="key-meta" x="1191" y="787">R Enter · [11,5]</text>
    <text class="key-matrix" x="1191" y="809">R5 C5</text>
    <text class="key-pins" x="1191" y="829">GP29 / GP7</text>
  </g>
  <g class="key right thumb" transform="rotate(-10 1160 760)">
    <rect class="key-shape" x="1242" y="720" width="90" height="180" rx="9"/>
    <text class="key-meta" x="1287" y="787">R Space · [11,0]</text>
    <text class="key-matrix" x="1287" y="809">R5 C0</text>
    <text class="key-pins" x="1287" y="829">GP29 / GP2</text>
  </g>
  <g class="key right thumb" transform="rotate(-10 1160 760)">
    <rect class="key-shape" x="1050" y="810" width="90" height="84" rx="9"/>
    <text class="key-meta" x="1095" y="832">R Page Down · [11,1]</text>
    <text class="key-matrix" x="1095" y="854">R5 C1</text>
    <text class="key-pins" x="1095" y="874">GP29 / GP3</text>
  </g>

  <g transform="translate(60 965)">
    <text class="section" x="0" y="0">引脚总表</text>
    <text class="legend" x="0" y="29">行：R0=GP14　R1=GP15　R2=GP26　R3=GP27　R4=GP28　R5=GP29</text>
    <text class="legend" x="0" y="55">列：C0=GP2　C1=GP3　C2=GP4　C3=GP5　C4=GP6　C5=GP7　C6=GP8</text>
    <text class="warning" x="0" y="86">COL2ROW：列 GPIO → 开关 → 二极管无环端 → 二极管带环端 → 行 GPIO</text>
  </g>

  <g transform="translate(930 965)">
    <text class="section" x="0" y="0">VIA 隐藏但实体保留的矩阵位置</text>
    <text class="legend" x="0" y="29">左：[0,6]、[4,5]、[4,6]、[5,3]</text>
    <text class="legend" x="0" y="55">右：[6,6]、[10,5]、[10,6]、[11,3]</text>
    <text class="warning" x="0" y="86">纵向 2u 仍然只使用一个开关和一个矩阵交点。</text>
  </g>
</svg>
